<?xml version="1.0" standalone="no"?>
<!DOCTYPE svg PUBLIC "-//W3C//DTD SVG 20010904//EN"
 "http://www.w3.org/TR/2001/REC-SVG-20010904/DTD/svg10.dtd">
<svg version="1.0" xmlns="http://www.w3.org/2000/svg"
 width="200.000000pt" height="200.000000pt" viewBox="0 0 200.000000 200.000000"
 preserveAspectRatio="xMidYMid meet">
<metadata>
Created by potrace 1.11, written by Peter Selinger 2001-2013
</metadata>
<g transform="translate(0.000000,200.000000) scale(0.100000,-0.100000)"
fill="#000000" stroke="none">
<path d="M0 1975 c0 -20 5 -25 25 -25 20 0 25 -5 25 -25 0 -23 3 -25 50 -25
l50 0 0 -75 c0 -73 -1 -75 -25 -75 -20 0 -25 -5 -25 -25 0 -20 -5 -25 -25 -25
-20 0 -25 5 -25 25 0 20 -5 25 -25 25 -20 0 -25 -5 -25 -25 0 -20 5 -25 25
-25 20 0 25 -5 25 -25 0 -24 1 -24 98 -27 92 -3 97 -4 100 -25 3 -22 7 -23
103 -23 l99 0 0 -100 0 -100 -25 0 c-23 0 -25 3 -25 50 l0 50 -50 0 c-47 0
-50 2 -50 25 l0 25 -100 0 -100 0 0 25 c0 23 -3 25 -50 25 l-50 0 0 -400 0
-400 75 0 75 0 0 -27 0 -28 75 3 c75 4 75 4 75 -22 l0 -26 150 0 150 0 0 -25
c0 -20 5 -25 25 -25 20 0 25 -5 25 -25 0 -20 5 -25 25 -25 20 0 25 -5 25 -25
0 -23 -3 -25 -50 -25 -47 0 -50 2 -50 25 0 24 -2 25 -75 25 -73 0 -75 1 -75
25 l0 25 -100 0 c-99 0 -100 0 -100 24 0 22 -5 24 -50 28 -49 3 -50 2 -50 -24
0 -23 4 -28 25 -28 20 0 25 -5 25 -25 0 -20 5 -25 25 -25 20 0 25 -5 25 -25 0
-20 5 -25 24 -25 18 0 25 -6 28 -22 2 -15 11 -24 26 -26 16 -3 22 -10 22 -28
0 -19 5 -24 25 -24 20 0 25 -5 25 -25 0 -23 -3 -25 -50 -25 -47 0 -50 2 -50
25 0 20 -5 25 -25 25 -20 0 -25 5 -25 25 0 20 -5 25 -25 25 -20 0 -25 5 -25
25 0 20 -5 25 -25 25 -20 0 -25 5 -25 25 0 24 -2 25 -75 25 -73 0 -75 -1 -75
-25 0 -20 5 -25 25 -25 20 0 25 -5 25 -25 0 -20 5 -25 25 -25 20 0 25 -5 25
-25 0 -23 3 -25 50 -25 47 0 50 -2 50 -25 0 -23 3 -25 50 -25 47 0 50 -2 50
-25 0 -23 -3 -25 -50 -25 -47 0 -50 -2 -50 -25 0 -23 -3 -25 -50 -25 -47 0
-50 -1 -50 -26 0 -23 -3 -26 -25 -22 -22 5 -25 2 -25 -23 0 -24 -4 -29 -25
-29 l-25 0 0 -100 0 -100 200 0 200 0 0 25 c0 20 5 25 25 25 20 0 25 -5 25
-25 0 -23 3 -25 50 -25 47 0 50 2 50 25 0 20 5 25 25 25 20 0 25 -5 25 -25 l0
-25 700 0 700 0 0 175 0 175 -32 2 c-18 0 -40 1 -48 2 -8 1 -16 12 -18 26 -2
22 -1 23 8 8 13 -22 40 -24 40 -3 0 9 9 15 25 15 l25 0 0 175 0 175 -25 0
c-20 0 -25 5 -25 25 0 20 5 25 25 25 20 0 25 5 25 25 0 20 -5 25 -25 25 -20 0
-25 5 -25 25 0 20 -5 25 -25 25 -20 0 -25 5 -25 25 0 23 -3 25 -50 25 -47 0
-50 2 -50 25 0 20 -5 25 -25 25 -20 0 -25 5 -25 25 0 23 -3 25 -50 25 -47 0
-50 2 -50 25 0 20 -5 25 -25 25 -23 0 -25 3 -25 50 0 47 -2 50 -25 50 -23 0
-25 3 -25 50 0 43 -3 50 -19 50 -24 0 -36 16 -19 23 10 4 10 6 1 6 -8 1 -13
15 -13 36 l0 35 -50 0 -50 0 0 50 c0 47 2 50 25 50 20 0 25 -5 25 -25 0 -24 2
-25 75 -25 73 0 75 -1 75 -25 l0 -25 100 0 100 0 0 -50 c0 -47 2 -50 25 -50
20 0 25 -5 25 -25 0 -24 2 -25 75 -25 l75 0 0 250 0 250 -25 0 c-20 0 -25 5
-25 25 0 24 -2 25 -75 25 -73 0 -75 1 -75 25 0 20 5 25 25 25 20 0 25 5 25 25
0 16 6 25 15 25 21 0 19 18 -2 23 -17 4 -17 5 0 6 35 2 15 21 -23 21 l-40 0 0
-50 0 -50 -100 0 -100 0 0 25 c0 20 -5 25 -25 25 -20 0 -25 5 -25 25 0 24 -2
25 -75 25 -73 0 -75 1 -75 25 l0 25 -700 0 -700 0 0 -25z m246 -37 c4 -7 3 -8
-5 -4 -6 4 -18 2 -26 -4 -8 -7 -15 -8 -15 -3 0 23 33 32 46 11z m-2 -30 c-3
-4 -15 -8 -27 -8 -15 0 -18 3 -9 8 17 11 43 11 36 0z m156 -83 c0 -20 -5 -25
-24 -25 -17 0 -25 7 -28 25 -5 22 -2 25 23 25 24 0 29 -4 29 -25z m300 0 c0
-21 -5 -25 -29 -25 -25 0 -28 3 -23 25 3 18 11 25 28 25 19 0 24 -5 24 -25z
m150 0 c0 -20 -5 -25 -25 -25 -20 0 -25 5 -25 25 0 20 5 25 25 25 20 0 25 -5
25 -25z m250 0 c0 -20 -5 -25 -25 -25 -20 0 -25 5 -25 25 0 20 5 25 25 25 20
0 25 -5 25 -25z m-500 -75 c0 -47 -2 -50 -25 -50 -23 0 -25 3 -25 50 0 47 2
50 25 50 23 0 25 -3 25 -50z m600 -125 c0 -20 5 -25 25 -25 20 0 25 -5 25 -25
0 -20 5 -25 25 -25 24 0 25 -2 25 -75 0 -73 1 -75 25 -75 l25 0 0 -179 c0
-125 -4 -182 -12 -187 -7 -4 -8 -3 -4 4 8 14 5 15 -19 6 -13 -5 -14 -8 -3 -15
10 -7 10 -9 -2 -9 -34 -1 16 -20 53 -20 l37 0 0 50 c0 47 2 50 25 50 23 0 25
-3 25 -50 0 -47 -2 -50 -25 -50 -23 0 -25 -4 -26 -42 -1 -24 -3 -35 -6 -25 -3
10 -12 17 -21 15 -14 -3 -18 -17 -20 -76 l-3 -72 -74 0 -75 0 0 -100 0 -100
-25 0 c-20 0 -25 -5 -25 -25 0 -24 -2 -25 -62 -25 -42 0 -58 3 -49 9 12 8 13
12 1 26 -7 9 -9 15 -4 14 5 -1 33 -1 62 0 49 1 52 3 52 26 0 23 -3 25 -50 25
-47 0 -50 2 -50 25 0 20 5 25 25 25 20 0 25 5 25 25 0 20 5 25 25 25 20 0 25
5 25 25 0 20 5 25 25 25 20 0 25 5 25 25 0 23 -3 25 -50 25 -46 0 -50 -2 -50
-24 0 -25 -15 -36 -37 -29 -7 3 -13 15 -13 28 0 17 6 25 23 27 19 3 22 10 25
51 3 45 2 47 -22 47 -21 0 -26 -5 -26 -25 0 -20 -5 -25 -25 -25 -24 0 -25 2
-25 75 0 73 -1 75 -25 75 -24 0 -25 2 -25 75 l0 75 -50 0 c-48 0 -50 1 -50 28
0 26 -1 27 -50 24 -45 -4 -50 -6 -50 -28 0 -19 -5 -24 -25 -24 -20 0 -25 5
-25 25 0 20 5 25 25 25 20 0 25 5 25 25 0 24 2 25 75 25 43 0 76 -4 76 -10 1
-5 2 -16 3 -22 1 -7 12 -12 24 -11 18 2 22 -2 22 -27 0 -25 4 -30 25 -30 21 0
25 -5 25 -28 0 -23 4 -28 23 -28 16 1 23 -5 25 -21 3 -17 10 -23 28 -23 17 0
24 -6 24 -19 0 -20 -25 -35 -41 -25 -5 3 -9 -9 -9 -25 0 -26 4 -31 25 -31 20
0 25 5 25 25 0 23 3 25 50 25 47 0 50 2 50 25 0 20 -5 25 -25 25 -23 0 -25 3
-25 50 0 47 2 50 25 50 20 0 25 5 25 25 l0 25 -100 0 -100 0 0 75 0 75 -74 0
c-71 0 -74 1 -78 25 -5 24 -4 25 56 26 33 1 65 1 69 0 5 -1 6 3 2 9 -3 6 -10
8 -15 5 -4 -3 -7 3 -6 12 2 10 8 19 14 19 7 1 17 2 22 3 6 0 10 12 10 26 0 24
2 25 75 25 73 0 75 1 75 25 0 23 -3 25 -50 25 -47 0 -50 2 -50 25 0 24 2 25
75 25 73 0 75 -1 75 -25z m198 -47 c-3 -65 -5 -73 -23 -73 -17 0 -20 8 -23 48
-3 42 -5 47 -28 47 -19 0 -24 5 -24 25 0 23 3 25 50 25 l51 0 -3 -72z m-908
-48 c8 -15 8 -18 -3 -14 -8 3 -14 11 -14 19 0 20 4 19 17 -5z m158 -49 c3 -60
2 -63 -17 -58 -13 3 -21 0 -21 -8 0 -7 -13 -15 -30 -17 -27 -4 -30 -2 -30 24
0 23 4 28 25 28 23 0 25 3 25 51 0 47 2 50 23 47 20 -3 22 -9 25 -67z m-575
-46 c-3 -9 -8 -14 -10 -11 -3 3 -2 9 2 15 9 16 15 13 8 -4z m42 4 c11 -17 -1
-21 -15 -4 -8 9 -8 15 -2 15 6 0 14 -5 17 -11z m22 -26 c-3 -10 -5 -4 -5 12 0
17 2 24 5 18 2 -7 2 -21 0 -30z m113 12 c0 -20 -5 -25 -25 -25 -20 0 -25 5
-25 25 0 20 5 25 25 25 20 0 25 -5 25 -25z m550 0 c0 -23 -3 -25 -50 -25 -47
0 -50 2 -50 25 0 23 3 25 50 25 47 0 50 -2 50 -25z m1050 0 c0 -23 3 -25 50
-25 47 0 50 -2 50 -25 0 -23 -3 -25 -50 -25 -47 0 -50 2 -50 25 0 20 -5 25
-25 25 -20 0 -25 5 -25 25 0 20 5 25 25 25 20 0 25 -5 25 -25z m-1200 -147
c-2 -40 -2 -108 -1 -150 1 -76 2 -78 26 -78 20 0 25 -5 25 -25 0 -23 3 -25 50
-25 l50 0 0 50 c0 47 2 50 25 50 23 0 25 -3 25 -50 0 -47 -2 -50 -25 -50 -20
0 -25 -5 -25 -25 0 -23 -3 -25 -50 -25 -47 0 -50 2 -50 25 0 23 -3 25 -50 25
l-50 0 0 175 0 175 26 0 c26 0 26 -1 24 -72z m800 -3 c0 -73 1 -75 25 -75 23
0 25 -3 25 -51 0 -47 -2 -50 -22 -47 -15 2 -23 10 -23 23 0 14 -8 21 -27 23
l-28 3 0 100 c0 99 0 99 25 99 24 0 25 -2 25 -75z m-900 -150 c0 -20 -5 -25
-25 -25 -20 0 -25 5 -25 25 0 20 5 25 25 25 20 0 25 -5 25 -25z m1050 -100 c0
-26 -7 -29 -34 -19 -27 10 -20 44 9 44 20 0 25 -5 25 -25z m-1045 -52 c1 -19
-3 -23 -27 -23 -23 0 -28 4 -28 26 0 22 4 25 27 22 19 -2 27 -9 28 -25z m43 2
c-3 -3 -9 2 -12 12 -6 14 -5 15 5 6 7 -7 10 -15 7 -18z m352 0 c0 -20 -5 -25
-25 -25 -20 0 -25 5 -25 25 0 20 5 25 25 25 20 0 25 -5 25 -25z m-300 -100 c0
-73 -1 -75 -25 -75 -24 0 -25 2 -25 75 0 73 1 75 25 75 24 0 25 -2 25 -75z
m935 35 c13 -6 15 -9 5 -9 -8 0 -22 4 -30 9 -18 12 -2 12 25 0z m-735 -35 c0
-20 5 -25 25 -25 20 0 25 -5 25 -25 0 -24 2 -25 75 -25 73 0 75 -1 75 -25 0
-24 -2 -25 -75 -25 -73 0 -75 1 -75 25 0 20 -5 25 -25 25 -20 0 -25 5 -25 25
0 20 -5 25 -25 25 -20 0 -25 5 -25 25 0 20 5 25 25 25 20 0 25 -5 25 -25z
m800 -50 c0 -20 -5 -25 -25 -25 -20 0 -25 5 -25 25 0 20 5 25 25 25 20 0 25
-5 25 -25z m-850 -50 c0 -20 5 -25 25 -25 23 0 25 -3 25 -50 0 -47 2 -50 25
-50 20 0 25 -5 25 -25 0 -23 -3 -25 -50 -25 l-50 0 0 75 0 75 -29 0 c-25 0
-28 3 -23 25 3 18 11 25 28 25 19 0 24 -5 24 -25z m590 5 c0 -21 -24 -28 -35
-10 -4 6 -1 9 7 8 7 -2 12 3 11 10 -2 6 2 12 7 12 6 0 10 -9 10 -20z m-41
-147 c-1 -65 -3 -110 -6 -100 -2 9 -12 17 -21 17 -13 0 -18 -11 -20 -51 -3
-50 -3 -51 22 -47 25 5 26 4 26 -48 l0 -54 -75 0 c-73 0 -75 1 -75 25 0 20 -5
25 -25 25 -23 0 -25 -3 -25 -50 0 -47 -2 -50 -25 -50 -20 0 -25 5 -25 25 0 23
-3 25 -50 25 -47 0 -50 2 -50 25 l0 25 -100 0 -100 0 0 25 c0 23 -4 25 -42 26
-24 1 -35 3 -25 6 9 2 17 9 17 14 0 14 -26 39 -39 39 -14 0 -14 27 -1 35 5 3
16 -7 25 -22 l16 -28 -6 28 c-5 25 -3 27 25 27 29 0 30 -1 30 -50 l0 -50 100
0 100 0 0 -25 c0 -24 2 -25 74 -25 l75 0 3 48 c3 40 6 47 26 50 16 3 22 10 22
29 0 22 4 25 25 21 22 -5 25 -2 25 23 0 24 4 29 25 29 24 0 25 2 25 75 0 73 1
75 25 75 l25 0 -1 -117z m-949 -56 c0 -17 -6 -23 -25 -25 -21 -1 -25 3 -25 23
0 20 5 25 25 25 19 0 25 -5 25 -23z m613 16 c-7 -2 -13 -13 -13 -24 0 -13 -7
-19 -21 -19 -13 0 -18 -4 -13 -12 4 -7 3 -8 -4 -4 -7 4 -12 20 -12 37 0 27 2
29 38 28 20 0 31 -3 25 -6z m-413 -93 l0 -50 -75 0 c-73 0 -75 1 -75 25 0 23
3 25 50 25 47 0 50 2 50 25 0 20 5 25 25 25 23 0 25 -3 25 -50z m377 14 c-3
-3 -12 -4 -19 -1 -8 3 -5 6 6 6 11 1 17 -2 13 -5z m473 -89 c0 -20 -5 -25 -25
-25 -20 0 -25 5 -25 25 0 20 5 25 25 25 20 0 25 -5 25 -25z m100 -50 c0 -20 5
-25 25 -25 20 0 25 5 25 25 0 24 2 25 75 25 73 0 75 -1 75 -25 0 -24 -2 -25
-75 -25 l-75 0 0 -50 c0 -27 -4 -50 -10 -50 -5 0 -10 -10 -11 -22 -1 -22 -1
-22 -9 2 l-7 25 -5 -30 c-3 -16 -6 5 -7 48 -1 75 -2 77 -26 77 -20 0 -25 5
-25 25 0 20 5 25 25 25 20 0 25 -5 25 -25z m280 15 c-24 -8 -24 -8 -2 -9 27
-1 29 -17 3 -24 -12 -3 -22 1 -25 10 -11 27 -6 33 22 32 l27 -1 -25 -8z
m-1380 -65 c0 -7 -7 -15 -15 -19 -11 -4 -15 1 -15 19 0 18 4 23 15 19 8 -4 15
-12 15 -19z m-43 -17 c-3 -7 -5 -2 -5 12 0 14 2 19 5 13 2 -7 2 -19 0 -25z
m393 -88 c0 -25 -4 -30 -25 -30 -21 0 -25 5 -25 30 0 25 4 30 25 30 21 0 25
-5 25 -30z m298 3 c2 -13 -1 -23 -7 -23 -6 0 -11 10 -12 23 -1 21 -1 21 -9 -3
-4 -14 -8 -20 -9 -13 -1 6 -4 18 -7 26 -3 10 2 14 18 13 16 -1 24 -8 26 -23z
m297 2 c0 -30 -39 -27 -43 3 -3 20 0 23 20 20 15 -2 23 -10 23 -23z m300 0 c0
-13 -8 -21 -22 -23 -19 -3 -23 1 -23 23 0 22 4 26 23 23 14 -2 22 -10 22 -23z
m-1115 -29 c0 -2 -7 -7 -16 -10 -8 -3 -12 -2 -9 4 6 10 25 14 25 6z m420 -21
c0 -20 -5 -25 -25 -25 -20 0 -25 5 -25 25 0 20 5 25 25 25 20 0 25 -5 25 -25z
m200 0 c0 -18 -5 -25 -19 -25 -11 0 -23 5 -26 10 -11 18 3 40 25 40 15 0 20
-7 20 -25z m-375 -25 c20 0 25 -5 25 -25 0 -20 -5 -25 -24 -25 -19 0 -25 6
-28 28 -2 20 -8 26 -22 24 -15 -3 -16 -1 -5 11 12 13 15 13 22 1 4 -8 19 -14
32 -14z m-425 -25 c0 -20 -5 -25 -25 -25 -20 0 -25 5 -25 25 0 20 5 25 25 25
20 0 25 -5 25 -25z m1200 0 c0 -20 -5 -25 -25 -25 -20 0 -25 5 -25 25 0 20 5
25 25 25 20 0 25 -5 25 -25z m-1356 -44 c4 -5 -3 -7 -14 -4 -23 6 -26 13 -6
13 8 0 17 -4 20 -9z"/>
<path d="M1150 1500 c0 -47 2 -50 25 -50 20 0 25 -5 25 -25 0 -24 -3 -25 -56
-25 -34 0 -53 4 -49 10 3 6 1 10 -4 10 -6 0 -11 5 -11 11 0 5 5 7 12 3 7 -4 8
-3 4 4 -5 9 -13 9 -28 1 -15 -8 -19 -8 -14 0 5 7 -4 11 -23 11 -26 0 -31 -4
-31 -25 0 -20 5 -25 25 -25 20 0 25 -5 25 -26 0 -26 0 -26 78 -22 l77 3 -3
-52 c-4 -51 -3 -53 22 -53 l27 0 -3 98 c-3 89 -5 97 -23 97 -17 0 -20 8 -23
53 -3 48 -5 52 -28 52 -22 0 -24 -4 -24 -50z"/>
<path d="M980 1481 c0 -6 4 -13 10 -16 6 -3 7 1 4 9 -7 18 -14 21 -14 7z"/>
<path d="M1200 1175 c0 -23 3 -25 50 -25 47 0 50 2 50 25 0 23 -3 25 -50 25
-47 0 -50 -2 -50 -25z"/>
<path d="M1100 975 c0 -23 3 -25 50 -25 47 0 50 2 50 25 0 23 -3 25 -50 25
-47 0 -50 -2 -50 -25z"/>
<path d="M1200 941 c0 -6 -12 -11 -26 -11 -14 0 -23 -4 -20 -9 3 -5 15 -7 26
-4 17 5 20 0 20 -31 l0 -36 51 0 51 0 -4 48 -3 47 -48 3 c-28 2 -47 -1 -47 -7z"/>
<path d="M618 1243 c7 -3 16 -2 19 1 4 3 -2 6 -13 5 -11 0 -14 -3 -6 -6z"/>
<path d="M610 1215 c0 -8 5 -15 10 -15 6 0 10 7 10 15 0 8 -4 15 -10 15 -5 0
-10 -7 -10 -15z"/>
<path d="M1200 450 c0 -47 2 -50 25 -50 23 0 25 3 25 50 0 47 -2 50 -25 50
-23 0 -25 -3 -25 -50z"/>
<path d="M1600 1975 c0 -21 5 -25 30 -25 17 0 30 4 30 9 0 5 6 16 14 24 12 12
8 14 -30 15 -41 2 -44 0 -44 -23z"/>
<path d="M1711 1984 c0 -11 3 -14 6 -6 3 7 2 16 -1 19 -3 4 -6 -2 -5 -13z"/>
<path d="M1730 1989 c0 -5 5 -7 10 -4 6 3 10 8 10 11 0 2 -4 4 -10 4 -5 0 -10
-5 -10 -11z"/>
<path d="M1756 1979 c-12 -18 -21 -20 -50 -15 -22 4 -36 3 -36 -3 0 -6 7 -8
15 -5 11 5 15 -1 15 -25 0 -26 4 -31 25 -31 21 0 25 5 25 29 0 17 5 33 12 37
7 5 8 3 3 -6 -6 -10 -4 -12 9 -7 10 4 20 7 22 7 2 0 4 9 4 20 0 26 -25 26 -44
-1z"/>
<path d="M1900 1976 c0 -9 30 -14 35 -6 4 6 -3 10 -14 10 -12 0 -21 -2 -21 -4z"/>
<path d="M1887 1937 c-3 -8 -1 -20 4 -28 6 -10 9 -7 9 14 0 29 -5 35 -13 14z"/>
<path d="M1946 1910 c3 -25 6 -58 7 -75 2 -22 8 -31 24 -33 21 -3 22 0 20 70
-1 40 -5 72 -9 71 -5 -2 -12 -3 -18 -3 -5 0 -10 -5 -10 -11 0 -5 5 -7 10 -4 6
3 10 1 10 -4 0 -20 -20 -11 -30 12 -6 16 -8 10 -4 -23z"/>
<path d="M0 1825 c0 -20 5 -25 25 -25 20 0 25 5 25 25 0 20 -5 25 -25 25 -20
0 -25 -5 -25 -25z"/>
<path d="M1600 1325 c0 -20 5 -25 25 -25 20 0 25 5 25 25 0 20 -5 25 -25 25
-20 0 -25 -5 -25 -25z"/>
<path d="M1729 1288 c10 -14 9 -18 -6 -27 -10 -6 -13 -10 -8 -11 6 0 17 5 25
10 13 8 12 12 -4 27 -16 14 -17 15 -7 1z"/>
<path d="M1750 1225 c0 -20 5 -25 25 -25 20 0 25 5 25 25 0 20 -5 25 -25 25
-20 0 -25 -5 -25 -25z"/>
<path d="M1900 1175 c0 -20 5 -25 25 -25 20 0 25 5 25 25 0 20 -5 25 -25 25
-20 0 -25 -5 -25 -25z"/>
<path d="M1750 1125 c0 -20 5 -25 25 -25 20 0 25 -5 25 -25 0 -20 5 -25 25
-25 20 0 25 5 25 25 0 20 -5 25 -25 25 -20 0 -25 5 -25 25 0 20 -5 25 -25 25
-20 0 -25 -5 -25 -25z"/>
<path d="M1900 1025 c0 -20 5 -25 25 -25 20 0 25 -5 25 -25 0 -14 6 -25 13
-25 8 0 8 -3 2 -8 -6 -4 -11 -13 -10 -21 0 -18 25 -27 25 -9 0 10 3 9 10 -2 8
-12 10 -10 10 8 0 16 -4 21 -12 16 -10 -6 -10 -4 0 7 6 7 12 23 12 36 0 18 -6
23 -25 23 -20 0 -25 5 -25 25 0 20 -5 25 -25 25 -20 0 -25 -5 -25 -25z"/>
<path d="M0 675 c0 -22 4 -26 23 -23 14 2 22 10 22 23 0 13 -8 21 -22 23 -19
3 -23 -1 -23 -23z"/>
<path d="M0 425 c0 -20 5 -25 25 -25 20 0 25 5 25 25 0 20 -5 25 -25 25 -20 0
-25 -5 -25 -25z"/>
<path d="M48 378 c-2 -15 -11 -24 -25 -26 -35 -5 -32 -52 2 -52 20 0 25 5 25
25 0 23 3 25 50 25 47 0 50 2 50 25 0 23 -3 25 -49 25 -44 0 -50 -3 -53 -22z"/>
</g>
</svg>
